<svg width="70" xmlns="http://www.w3.org/2000/svg" viewBox="0 0 80 80"><path fill="#fff" d="M74.91 43.052a1.8 1.8 0 0 0-1.717-1.246h-5.536l-1.716-5.287a1.802 1.802 0 0 0-1.717-1.25h-.001a1.8 1.8 0 0 0-1.716 1.251l-1.712 5.286h-5.54c-.784 0-1.474.501-1.717 1.247-.243.747.02 1.56.654 2.022l4.486 3.268-1.716 5.284a1.805 1.805 0 0 0 .658 2.024c.635.46 1.488.46 2.121-.003l4.482-3.264 4.484 3.266a1.799 1.799 0 0 0 2.12.003c.637-.461.902-1.274.66-2.022l-1.713-5.288 4.482-3.268a1.805 1.805 0 0 0 .653-2.023zm-5.178 5.16v-.001zm-1.248-1.403a1.804 1.804 0 0 0-.654 2.02l1.57 4.852-4.115-2.998a1.801 1.801 0 0 0-2.124 0l-4.112 2.996 1.574-4.85a1.803 1.803 0 0 0-.655-2.02l-4.122-3.003h5.092c.786 0 1.476-.503 1.717-1.25l1.57-4.848 1.573 4.849a1.8 1.8 0 0 0 1.717 1.249h5.087l-4.118 3.003zm-42.022-3.756a1.801 1.801 0 0 0-1.716-1.247h-5.537l-1.716-5.287a1.802 1.802 0 0 0-1.717-1.25h-.001a1.8 1.8 0 0 0-1.716 1.251l-1.711 5.286H6.807c-.784 0-1.474.501-1.717 1.247-.243.747.02 1.56.655 2.022l4.485 3.268-1.715 5.284a1.805 1.805 0 0 0 .657 2.024c.635.46 1.488.46 2.121-.003l4.482-3.264 4.484 3.266a1.799 1.799 0 0 0 2.12.003c.637-.461.902-1.274.66-2.022l-1.712-5.288 4.482-3.268a1.805 1.805 0 0 0 .653-2.022zm-6.425 3.756a1.805 1.805 0 0 0-.656 2.018l1.572 4.854-4.116-2.998a1.801 1.801 0 0 0-2.124 0L10.6 53.68l1.573-4.85a1.802 1.802 0 0 0-.654-2.02l-4.122-3.003h5.092c.786 0 1.476-.503 1.717-1.25l1.57-4.848 1.573 4.849a1.8 1.8 0 0 0 1.717 1.249h5.087l-4.117 3.003zm33.684-9.88a2.094 2.094 0 0 0 .767-2.376 2.09 2.09 0 0 0-2.015-1.464h-7.897a.12.12 0 0 1-.114-.084l-2.446-7.539A2.09 2.09 0 0 0 40 24h-.001c-.936 0-1.727.577-2.015 1.468l-2.44 7.536a.121.121 0 0 1-.114.085h-7.903a2.09 2.09 0 0 0-2.016 1.465c-.29.891.011 1.824.769 2.375l6.394 4.658a.127.127 0 0 1 .044.14l-2.445 7.533c-.29.892.014 1.825.773 2.375a2.087 2.087 0 0 0 2.49-.002l6.393-4.657a.117.117 0 0 1 .139 0l6.397 4.66c.378.276.812.413 1.246.413.433 0 .866-.136 1.244-.41a2.093 2.093 0 0 0 .773-2.375l-2.44-7.536a.125.125 0 0 1 .045-.14l6.388-4.66zm-8.336 5.413v.001l2.44 7.537c.01.032.029.087-.044.14-.07.049-.111.02-.139 0l-6.396-4.66a2.113 2.113 0 0 0-2.495 0l-6.392 4.656c-.029.022-.069.05-.139 0-.073-.052-.055-.106-.044-.139l2.445-7.533a2.12 2.12 0 0 0-.77-2.373l-6.393-4.658c-.028-.02-.073-.053-.045-.14.027-.084.08-.084.114-.084h7.903c.922 0 1.733-.59 2.017-1.468l2.44-7.537c.022-.067.205-.066.227 0l2.446 7.539a2.117 2.117 0 0 0 2.016 1.466h7.897c.034 0 .086 0 .114.084.028.087-.017.12-.045.14l-6.388 4.659a2.122 2.122 0 0 0-.769 2.37z"/></svg>